<?xml version="1.0" encoding="UTF-8"?>
<!DOCTYPE svg PUBLIC "-//W3C//DTD SVG 1.1//EN" "http://www.w3.org/Graphics/SVG/1.1/DTD/svg11.dtd">
<svg version="1.2" xmlns="http://www.w3.org/2000/svg" xmlns:xlink="http://www.w3.org/1999/xlink" x="0" y="0" width="231" height="196" viewBox="0 0 231 196">
<style type="text/css"><![CDATA[
text { font:12px Dialog; }
]]></style>
<rect x="-485" y="-485" width="1201" height="1166" style="fill:rgb(243,244,249);stroke:none" />
<rect x="-485" y="-485" width="1201" height="1166" style="fill:rgb(243,244,249);opacity:0.5686274509803921;stroke:none" />
<clipPath id="clip1"><path d="M15,15 L216,15 L216,181 L15,181 Z M17,17 L17,83 L192,83 L192,17 Z" /></clipPath>
<path d="M97.2149963,92.9998779 L97.2149963,152.2149963 C97.2149963,156.6309967 100.798996,160.2149963 105.2149963,160.2149963 L127,160.2149963 L127,157.2149963 L120.2149963,157.2149963 C115.798996,157.2149963 112.2149963,153.6309967 112.2149963,149.2149963 L112.2149963,92.9998779 Z" style="fill:rgb(0,64,128);stroke:none" clip-path="url(#clip1)" />
<clipPath id="clip2"><path d="M14,14 L217,14 L217,182 L14,182 L14,14 Z" /></clipPath>
<path d="M104.6650009,83 L104.7149963,92.9998779" style="fill:none;stroke:rgb(0,64,128);stroke-width:3" clip-path="url(#clip2)" />
<clipPath id="clip3"><path d="M14,14 L196,14 L196,87 L14,87 L14,14 Z" /></clipPath>
<path d="M17,84 L192,84 Z" style="fill:none;stroke:rgb(3,3,3);stroke-width:4" clip-path="url(#clip3)" />
<clipPath id="clip4"><path d="M49,33 L161,33 L161,68 L49,68 L49,33 Z" /></clipPath>
<path d="M52.3593864,49.1078148 L71.5406342,49.1078148 L73.6031342,47.4578171 L75.8718872,49.7265625 L56.0718842,49.7265625 C54.976181,49.7330093 54.0480576,49.8361359 53.2875099,50.0359421 Z M93.1593857,55.3984375 L93.1593857,49.1078148 L93.0562592,47.0453148 L94.5000153,47.8703156 L99.6562576,47.8703156 L99.6562576,42.7140656 L95.9437561,42.7140656 C95.054306,42.7205124 94.2293091,42.8236351 93.4687653,43.0234375 L92.5406342,42.095314 L99.4500122,42.095314 L100.0687561,41.064064 L101.7187576,42.095314 L100.9968872,42.8171921 C100.9968872,46.1236343 101.035553,48.2570343 101.1000061,49.2109375 L99.6562576,49.829689 L99.6562576,48.4890671 L94.5000153,48.4890671 L94.5000153,54.8828125 C94.3646545,56.1267586 94.8093872,56.7132835 95.8406372,56.6359406 L100.1718826,56.6359406 C100.8615341,56.5714874 101.241806,55.9205093 101.3062592,54.6830101 C101.3771591,53.4455109 101.4093857,52.485157 101.4093857,51.7890625 L101.9250107,51.7890625 C101.9250107,53.0330086 101.9959106,54.0513687 102.1312561,54.8376961 C102.273056,55.6304703 102.6468811,56.1267586 103.2656326,56.3265648 C102.7177811,57.3642578 101.7896576,57.8476563 100.4812622,57.7703133 L95.4281311,57.7703133 C93.8490372,57.8476563 93.0949326,57.0548859 93.1593857,55.3984375 Z M85.9406357,43.0234375 C85.9406357,41.1027374 85.9084091,39.5558624 85.8375092,38.3828125 L88.1062622,39.4140625 L87.2812653,40.2390671 L87.2812653,43.0234375 L88.9312592,43.0234375 L90.2718887,41.7859421 L91.8187637,43.642189 L87.2812653,43.642189 L87.2812653,47.8703156 L89.6531372,47.8703156 L90.8906403,46.6328163 L92.6437607,48.4890671 L86.8687592,48.4890671 L88.3125153,49.314064 L87.4875107,50.0359421 L87.4875107,53.439064 L89.2406387,53.439064 L90.5812607,52.2015648 L92.2312622,54.0578156 L87.4875107,54.0578156 L87.4875107,59.110939 C89.4146576,59.9423828 91.9089966,60.4000015 94.9640732,60.5031281 C98.0255966,60.6062508 100.8293076,60.5224609 103.3687592,60.2453156 L103.3687592,60.657814 C102.1312561,60.8640633 101.4802856,61.4183617 101.4093857,62.3078156 C99.4177856,62.3787117 97.1296997,62.3078156 94.5515747,62.1015625 C91.9734497,61.8953133 89.6724701,61.3796883 87.6421967,60.5546875 C85.6183701,59.7361336 83.9812622,58.3632813 82.7437592,56.4296875 C81.9187622,59.0464859 80.8552856,61.1089859 79.5468903,62.6171875 L79.2375107,62.4109383 C80.4750137,60.213089 81.2484512,57.8992195 81.5578232,55.4564476 C81.8672028,53.0201187 82.0218887,51.3830109 82.0218887,50.5515671 L84.2906342,51.6859398 C83.9490356,51.8277359 83.6912231,52.195118 83.5171967,52.7751961 C83.3496246,53.361721 83.1562653,54.3736343 82.9500122,55.8109398 C84.0521622,57.125782 85.1156387,58.0539093 86.1468887,58.595314 L86.1468887,48.4890671 L82.5375137,48.4890671 C81.9896622,48.4955101 81.3386841,48.5986366 80.5781403,48.798439 L79.6500092,47.8703156 L85.9406357,47.8703156 L85.9406357,43.642189 L83.7750092,43.642189 C83.2271576,43.6486359 82.5761871,43.7517624 81.8156357,43.9515648 L80.8875122,43.0234375 Z M123.1312561,39.1046906 C124.5750122,39.9361343 125.5418091,40.5742188 126.0187607,41.0189476 C126.5021591,41.4701195 126.6890717,41.9148483 126.5859451,42.3595734 C126.4828186,42.8107452 126.2250061,43.1716843 125.8125076,43.4423828 C125.4000092,43.7195358 125.0906372,43.4810562 124.8843842,42.7205124 C124.6781311,41.9664078 123.9949341,40.8642578 122.8218842,39.4140625 Z M128.4937592,59.626564 L129.7312622,55.1921883 L130.1437683,55.2953148 C129.8730621,57.4351578 129.7312622,58.8466797 129.7312622,59.5298843 C129.7312622,60.213089 129.9052887,60.8640633 130.2468872,61.4828148 C130.5949402,62.1015625 129.8730621,62.0886726 128.0812683,61.4312515 C126.2959061,60.7802734 124.5427856,59.3945313 122.8218842,57.2546883 C120.694931,59.4589844 118.3552856,61.1089859 115.8093872,62.204689 L115.7062607,61.7921906 C118.4584122,60.0132828 120.5531387,58.1183624 121.9968872,56.1203156 C120.6240387,53.5808601 119.7281342,49.8683624 119.3156357,44.9828148 L111.1687622,44.9828148 L111.0656357,49.9328156 L115.8093872,49.9328156 L116.7375107,48.9015656 L118.2843857,50.345314 L117.3562622,51.0671921 C117.1500092,55.1986351 116.8793106,57.5898438 116.5312653,58.2408218 C116.1896591,58.898243 115.538681,59.4267578 114.5718842,59.8328133 C114.3656387,58.8789063 113.4375153,58.0861359 111.7875137,57.4609375 L111.7875137,57.048439 C113.0959091,57.2611351 114.0046997,57.4029312 114.5203247,57.4673843 C115.0359497,57.5382843 115.3646622,57.2482452 115.5000153,56.5908203 C115.6418076,55.939846 115.7771606,53.9289093 115.9125137,50.5515671 L111.0656357,50.5515671 C110.8593903,56.2621117 109.4156418,60.2453156 106.7343903,62.5140648 L106.5281372,62.204689 C108.3199387,59.6652374 109.2802887,56.455471 109.4156418,52.5689468 C109.5574341,48.6888695 109.5574341,45.6402359 109.4156418,43.4359398 L111.2718887,44.3640671 L119.2125092,44.3640671 C119.0062637,42.1017609 118.8386841,40.2455101 118.6968842,38.7953148 L121.3781357,39.8265648 L120.6562653,40.6515656 C120.6562653,41.7601585 120.7271576,42.9976578 120.8625107,44.3640671 L126.5343857,44.3640671 L127.9781342,42.9203148 L130.0406342,44.9828148 L120.8625107,44.9828148 C121.2750092,49.5267601 121.9968872,52.7236366 123.0281372,54.5734406 C123.582428,53.7548866 124.1302795,52.6914101 124.6781311,51.3830109 C125.2324295,50.0810547 125.7802811,48.5986366 126.3281326,46.9421921 L128.4937592,48.5921898 L127.5656357,49.1078148 C126.3990326,51.9308624 125.1937561,54.2382851 123.9562607,56.017189 C125.4000092,57.7445335 126.9146576,58.9433594 128.4937592,59.626564 Z M139.3875122,49.314064 C139.3875122,45.330864 139.3875122,42.9460983 139.3875122,42.1533203 C139.3875122,41.3669968 139.3552856,40.2132835 139.2843933,38.6921921 L141.7593842,39.8265648 L140.9343872,40.6515656 L140.9343872,49.314064 L153.3093872,49.314064 L155.0625153,47.767189 L156.9187622,49.9328156 L145.2656403,49.9328156 C146.5031433,52.4142609 148.2046967,54.4123077 150.3703308,55.9205093 C152.5359497,57.4351578 154.9593811,58.3632813 157.6406403,58.6984406 L157.6406403,59.110939 C156.5449371,59.1173859 155.7199402,59.6007843 155.1656342,60.5546875 C153.038681,59.8070335 151.0084076,58.5695343 149.0812683,56.8486328 C147.160553,55.134182 145.7168121,52.8267593 144.7500153,49.9328156 L140.9343872,49.9328156 L140.9343872,59.7296906 C142.9968872,58.8402367 145.098053,57.9507828 147.2250061,57.048439 L147.4312592,57.564064 C143.8605652,59.4267578 141.4500122,60.9671898 140.2125092,62.204689 L138.8718872,60.5546875 C139.2199402,60.0777359 139.3875122,59.5621109 139.3875122,59.0078125 L139.3875122,49.9328156 L137.0156403,49.9328156 C136.1261902,49.9392624 135.301178,50.0423851 134.5406342,50.2421875 L133.6125183,49.314064 Z M150.9375153,39.001564 L152.8968811,40.8578148 L151.5562592,41.3734398 C147.7793121,44.6798859 144.582428,46.9486351 141.9656372,48.1796913 L141.7593842,47.767189 C143.9636841,46.2589874 145.8328247,44.7507858 147.3796997,43.2361374 C148.9265747,41.727932 150.1125183,40.3164063 150.9375153,39.001564 Z" style="fill:rgb(3,3,3);stroke:none" clip-path="url(#clip4)" />
<clipPath id="clip5"><path d="M124,136 L217,136 L217,182 L124,182 L124,136 Z" /></clipPath>
<path d="M132,139 C129.2385712,139 127,141.2385712 127,144 L127,173 C127,175.7614288 129.2385712,178 132,178 L208,178 C210.7614288,178 213,175.7614288 213,173 L213,144 C213,141.2385712 210.7614288,139 208,139 Z" style="fill:rgb(255,255,255);stroke:none" clip-path="url(#clip5)" />
<clipPath id="clip6"><path d="M124,136 L217,136 L217,182 L124,182 L124,136 Z" /></clipPath>
<path d="M132,139 C129.2385712,139 127,141.2385712 127,144 L127,173 C127,175.7614288 129.2385712,178 132,178 L208,178 C210.7614288,178 213,175.7614288 213,173 L213,144 C213,141.2385712 210.7614288,139 208,139 Z" style="fill:none;stroke:rgb(3,3,3);stroke-width:3" clip-path="url(#clip6)" />
<clipPath id="clip7"><path d="M139,146 L202,146 L202,172 L139,172 L139,146 Z" /></clipPath>
<path d="M145.336731,158.7078094 C145.336731,158.5662842 145.3139038,158.2010498 145.2636719,157.6121063 L145.9941406,157.9042969 C146.8250427,156.8862 147.6285706,155.621582 148.4046936,154.1058655 L145.1906281,154.1058655 C144.5606079,154.1104279 143.9762268,154.1834717 143.4375,154.3249969 L142.7800903,153.667572 L148.5507813,153.667572 C149.0895081,152.3572998 149.4273376,151.2615967 149.5734406,150.3804626 L151.2535095,151.2570343 L150.5230408,151.6953125 C150.3769531,152.1381531 150.0847778,152.795578 149.6464844,153.667572 L156.0746155,153.667572 L157.1703186,152.5718689 L158.7042999,154.1058655 L149.5003967,154.1058655 C148.4777374,156.1055145 147.4550781,157.6394958 146.4324341,158.7078094 L146.4324341,166.8160095 L145.336731,167.4003906 C145.3869476,166.6242676 145.4097748,165.916626 145.4097748,165.2820282 L145.4097748,159.7304688 C144.2912445,160.7576904 143.2457581,161.561203 142.2687531,162.1410217 L142.1226654,161.921875 C143.5836029,160.6618042 144.6564789,159.5889282 145.336731,158.7078094 Z M151.9839783,156.5164032 C151.9839783,156.1785583 151.9611511,155.5713654 151.9109344,154.6902313 L153.5910187,155.4207001 L153.0066376,155.9320374 L153.0066376,158.9269409 L155.7824249,158.9269409 L156.7320251,157.9773407 L158.1199188,159.3652344 L153.0066376,159.3652344 L153.0066376,165.2089844 L156.6589813,165.2089844 L157.6816406,164.1863251 L159.1425781,165.6472626 L149.2082062,165.6472626 C148.578186,165.651825 147.9938049,165.7203064 147.4550781,165.866394 L146.7976685,165.2089844 L151.9839783,165.2089844 L151.9839783,159.3652344 L150.1578064,159.3652344 C149.5277863,159.3697968 148.9434204,159.4428406 148.4046936,159.5843811 L147.7472687,158.9269409 L151.9839783,158.9269409 Z M171.3148499,153.9597626 C171.8033447,154.9869843 172.4835968,155.9594269 173.3601532,156.8816376 C174.0906219,155.9137726 174.7754364,154.7450256 175.4054718,153.3753967 L171.6070251,153.3753967 Z M171.4609375,161.1914063 L171.4609375,165.5011597 L175.332428,165.5011597 L175.332428,161.1914063 Z M176.2820282,161.4835815 C176.2820282,163.5836792 176.3094177,165.3596497 176.355072,166.8160095 L175.332428,167.3273315 L175.332428,165.9394531 L171.4609375,165.9394531 L171.4609375,167.0351563 L170.4382782,167.6195374 C170.4884949,166.0627136 170.511322,163.7297821 170.511322,160.6070251 C169.8310852,161.1000977 168.8586426,161.561203 167.589447,161.9949188 L167.5164185,161.7757874 C169.5160675,160.7576904 171.2691956,159.3195801 172.7757874,157.4660034 C172.145752,156.5437927 171.584198,155.4983215 171.0957031,154.3249969 C170.3652344,155.7402802 169.5891113,156.9090271 168.7582092,157.8312378 L168.5390625,157.6851501 C169.9543457,155.3522186 170.9267883,152.9416809 171.4609375,150.4535217 L172.921875,151.2570343 L172.3374939,151.6953125 C172.2416229,151.8961945 172.0453186,152.3070831 171.7531281,152.9371033 L175.4785156,152.9371033 L175.9898376,152.2066345 L177.1585999,153.15625 L176.5011749,153.667572 C175.7707062,155.0372009 174.9443665,156.3018341 174.0175781,157.4660034 C175.3826447,158.639328 176.9394531,159.4200134 178.6925812,159.8035126 L178.6925812,160.0957031 C178.0625458,160.1504822 177.6242676,160.4152832 177.3777313,160.8992157 C175.9670105,160.2235413 174.6521759,159.3195801 173.433197,158.1964722 C172.8488312,158.7854309 172.0453186,159.4930725 171.0226593,160.3148499 L171.6800842,160.7531128 L175.2593689,160.7531128 L175.6976624,160.1687469 L176.7933655,161.0453186 Z M163.8640747,152.644928 L163.8640747,156.4433594 L167.2242126,156.4433594 L167.2242126,152.644928 Z M163.644928,164.6976624 L165.1058655,164.332428 L165.1058655,156.8816376 L163.8640747,156.8816376 L163.8640747,157.4660034 L162.8414154,157.8312378 C162.8916321,156.6670532 162.9144592,155.5485382 162.9144592,154.4756622 C162.9144592,153.4073486 162.8916321,152.4805603 162.8414154,151.6953125 L163.8640747,152.2066345 L167.078125,152.2066345 L167.589447,151.5492249 L168.6851501,152.3527374 L168.1007843,152.8640594 C168.1007843,154.9641571 168.1281738,156.3748779 168.1738281,157.100769 L167.2242126,157.5390625 L167.2242126,156.8816376 L165.9824219,156.8816376 L165.9824219,159.6574097 L166.8589783,159.6574097 L167.6625061,158.8539124 L168.8312531,160.0957031 L165.9824219,160.0957031 L165.9824219,164.1132813 L168.6851501,163.4558563 L168.7582092,163.7480469 C167.0050812,164.3369751 165.0328217,165.0674438 162.8414154,165.9394531 L162.3300781,166.3046875 L161.5996094,165.2089844 L162.7683716,164.9167938 C162.7683716,161.9492645 162.7455444,159.9541626 162.6953125,158.9269409 L164.2293091,159.6574097 L163.644928,160.1687469 Z M187.9429626,150.5996094 L189.9152374,151.4761658 L189.1117249,152.0605469 L189.1117249,156.9546814 L193.4214783,156.9546814 L194.5171814,155.8589783 L196.051178,157.3929749 L189.1117249,157.3929749 L189.1117249,165.6472626 L195.1015625,165.6472626 L196.2703094,164.4785156 L197.8773499,166.0855408 L183.2679749,166.0855408 C182.6379395,166.0855408 182.0535583,166.1585999 181.5148468,166.3046875 L180.8574219,165.6472626 L188.0160217,165.6472626 L188.0160217,153.3753967 C188.0160217,152.5033875 187.9931946,151.5766144 187.9429626,150.5996094 Z" style="fill:rgb(3,3,3);stroke:none" clip-path="url(#clip7)" />
</svg>
